<svg width="120.000000" height="40.000000" viewBox="0 0 120 40" fill="none" xmlns="http://www.w3.org/2000/svg" xmlns:xlink="http://www.w3.org/1999/xlink">
	<desc>
			Created with Pixso.
	</desc>
	<defs/>
	<mask id="mask3_854" mask-type="alpha" maskUnits="userSpaceOnUse" x="0.000000" y="0.000000" width="119.664001" height="40.000000">
		<path id="Vector" d="M0 0L119.66 0L119.66 40L0 40L0 0Z" fill="#000000" fill-opacity="1.000000" fill-rule="evenodd"/>
	</mask>
	<g mask="url(#mask3_854)">
		<path id="Vector" d="M110.13 0L9.53 0C9.16 0 8.8 0 8.44 0C8.13 0 7.82 0 7.52 0.01C6.84 0.02 6.18 0.08 5.51 0.18C4.85 0.3 4.21 0.51 3.61 0.81C2.71 1.27 1.93 1.94 1.34 2.75C0.74 3.57 0.35 4.52 0.19 5.52C0.08 6.18 0.02 6.85 0.01 7.52C0 7.83 0 8.13 -0.01 8.44L-0.01 31.56C0 31.86 0 32.16 0.01 32.48C0.02 33.15 0.08 33.82 0.19 34.48C0.3 35.14 0.51 35.78 0.81 36.38C1.12 36.98 1.51 37.53 1.99 38C2.47 38.47 3.01 38.87 3.61 39.18C4.21 39.48 4.85 39.69 5.51 39.81C6.18 39.91 6.84 39.97 7.52 39.98C7.83 39.99 8.13 39.99 8.43 39.99C8.8 40 9.16 40 9.53 40L110.13 40C110.49 40 110.85 40 111.21 39.99C111.52 39.99 111.83 39.99 112.14 39.98C112.81 39.98 113.47 39.91 114.14 39.81C114.8 39.69 115.44 39.48 116.04 39.18C116.64 38.87 117.19 38.47 117.66 38C118.14 37.52 118.54 36.98 118.84 36.38C119.15 35.78 119.35 35.14 119.46 34.48C119.57 33.81 119.64 33.15 119.65 32.47C119.65 32.16 119.65 31.86 119.65 31.55C119.66 31.19 119.66 30.83 119.66 30.46L119.66 9.53C119.66 9.16 119.66 8.8 119.65 8.44C119.65 8.13 119.65 7.83 119.65 7.52C119.64 6.85 119.57 6.18 119.46 5.52C119.35 4.85 119.14 4.21 118.84 3.61C118.23 2.41 117.25 1.43 116.04 0.81C115.44 0.51 114.8 0.3 114.14 0.19C113.47 0.08 112.81 0.02 112.14 0.01C111.83 0 111.52 0 111.21 0C110.85 0 110.49 0 110.13 0Z" fill="#A6A6A6" fill-opacity="1.000000" fill-rule="evenodd"/>
		<path id="Vector" d="M8.44 39.12C8.14 39.12 7.84 39.12 7.54 39.11C6.91 39.1 6.28 39.05 5.67 38.95C5.09 38.85 4.53 38.66 4.01 38.4C3.49 38.14 3.02 37.79 2.61 37.38C2.2 36.98 1.85 36.5 1.59 35.99C1.33 35.46 1.14 34.91 1.05 34.33C0.95 33.71 0.89 33.08 0.88 32.45C0.88 32.24 0.87 31.54 0.87 31.54L0.87 8.44C0.87 8.44 0.88 7.75 0.88 7.55C0.89 6.92 0.95 6.29 1.05 5.67C1.14 5.09 1.33 4.53 1.59 4.01C1.85 3.49 2.2 3.02 2.61 2.61C3.44 1.78 4.5 1.23 5.66 1.05C6.28 0.94 6.91 0.89 7.54 0.88L8.44 0.87L111.21 0.87L112.12 0.88C112.75 0.89 113.37 0.94 113.98 1.05C114.56 1.15 115.12 1.33 115.65 1.59C116.69 2.13 117.53 2.97 118.07 4.01C118.33 4.53 118.51 5.09 118.6 5.66C118.71 6.29 118.76 6.91 118.78 7.55C118.78 7.83 118.78 8.14 118.78 8.44C118.79 8.81 118.79 9.17 118.79 9.53L118.79 30.46C118.79 30.82 118.79 31.18 118.78 31.53C118.78 31.86 118.78 32.16 118.77 32.47C118.76 33.09 118.71 33.71 118.6 34.32C118.51 34.9 118.33 35.46 118.06 35.99C117.8 36.5 117.46 36.97 117.05 37.37C116.64 37.79 116.17 38.13 115.65 38.4C115.12 38.66 114.56 38.85 113.98 38.95C113.36 39.05 112.74 39.1 112.11 39.11C111.82 39.12 111.51 39.12 111.21 39.12L110.13 39.12L8.44 39.12Z" fill="#000000" fill-opacity="1.000000" fill-rule="evenodd"/>
		<path id="Vector" d="M24.76 20.3C24.77 19.46 25 18.64 25.41 17.92C25.82 17.19 26.41 16.58 27.12 16.14C26.67 15.5 26.07 14.97 25.38 14.59C24.69 14.22 23.92 14.01 23.13 13.99C21.45 13.81 19.82 14.99 18.97 14.99C18.09 14.99 16.78 14 15.36 14.03C14.44 14.06 13.55 14.33 12.76 14.81C11.98 15.29 11.33 15.96 10.89 16.76C8.95 20.11 10.39 25.03 12.25 27.74C13.17 29.06 14.26 30.54 15.67 30.49C17.06 30.43 17.58 29.6 19.25 29.6C20.91 29.6 21.4 30.49 22.84 30.46C24.33 30.43 25.27 29.13 26.16 27.79C26.83 26.84 27.34 25.8 27.68 24.69C26.82 24.33 26.08 23.72 25.56 22.93C25.04 22.15 24.76 21.23 24.76 20.3ZM22.03 12.2C22.84 11.23 23.24 9.98 23.15 8.72C21.91 8.84 20.76 9.44 19.94 10.38C19.13 11.3 18.72 12.51 18.79 13.74C19.42 13.74 20.03 13.61 20.59 13.34C21.15 13.08 21.64 12.69 22.03 12.2ZM42.3 27.14L37.56 27.14L36.43 30.49L34.42 30.49L38.91 18.07L40.99 18.07L45.47 30.49L43.43 30.49L42.3 27.14ZM38.05 25.58L41.81 25.58L39.96 20.14L39.91 20.14L38.05 25.58ZM55.16 25.97C55.16 28.78 53.65 30.58 51.38 30.58C50.8 30.61 50.23 30.48 49.72 30.2C49.22 29.92 48.81 29.51 48.53 29L48.49 29L48.49 33.49L46.62 33.49L46.62 21.44L48.43 21.44L48.43 22.94L48.46 22.94C48.75 22.44 49.17 22.03 49.68 21.75C50.19 21.46 50.76 21.32 51.34 21.34C53.64 21.34 55.16 23.16 55.16 25.97ZM53.25 25.97C53.25 24.13 52.3 22.93 50.85 22.93C49.43 22.93 48.48 24.16 48.48 25.97C48.48 27.79 49.43 29.01 50.85 29.01C52.3 29.01 53.25 27.81 53.25 25.97ZM65.12 25.97C65.12 28.78 63.61 30.58 61.34 30.58C60.77 30.61 60.19 30.48 59.69 30.2C59.19 29.92 58.77 29.51 58.49 29L58.45 29L58.45 33.49L56.59 33.49L56.59 21.44L58.39 21.44L58.39 22.94L58.42 22.94C58.71 22.44 59.14 22.03 59.64 21.75C60.15 21.46 60.73 21.32 61.31 21.34C63.61 21.34 65.12 23.16 65.12 25.97ZM63.21 25.97C63.21 24.13 62.26 22.93 60.82 22.93C59.4 22.93 58.44 24.16 58.44 25.97C58.44 27.79 59.4 29.01 60.82 29.01C62.26 29.01 63.21 27.81 63.21 25.97ZM71.71 27.03C71.84 28.26 73.04 29.07 74.68 29.07C76.24 29.07 77.37 28.26 77.37 27.15C77.37 26.19 76.69 25.61 75.08 25.22L73.47 24.83C71.19 24.28 70.13 23.21 70.13 21.48C70.13 19.34 72 17.87 74.65 17.87C77.27 17.87 79.07 19.34 79.13 21.48L77.26 21.48C77.14 20.24 76.12 19.49 74.62 19.49C73.12 19.49 72.1 20.25 72.1 21.35C72.1 22.23 72.75 22.75 74.36 23.14L75.72 23.48C78.27 24.08 79.33 25.1 79.33 26.92C79.33 29.24 77.48 30.7 74.54 30.7C71.78 30.7 69.92 29.28 69.8 27.03L71.71 27.03ZM83.34 19.3L83.34 21.44L85.06 21.44L85.06 22.91L83.34 22.91L83.34 27.9C83.34 28.68 83.69 29.04 84.44 29.04C84.65 29.03 84.85 29.02 85.05 28.99L85.05 30.46C84.71 30.52 84.37 30.55 84.02 30.54C82.19 30.54 81.47 29.85 81.47 28.1L81.47 22.91L80.16 22.91L80.16 21.44L81.47 21.44L81.47 19.3L83.34 19.3ZM86.06 25.97C86.06 23.12 87.74 21.33 90.35 21.33C92.98 21.33 94.65 23.12 94.65 25.97C94.65 28.82 92.99 30.6 90.35 30.6C87.72 30.6 86.06 28.82 86.06 25.97ZM92.75 25.97C92.75 24.01 91.86 22.86 90.35 22.86C88.85 22.86 87.95 24.02 87.95 25.97C87.95 27.93 88.85 29.07 90.35 29.07C91.86 29.07 92.75 27.93 92.75 25.97ZM96.18 21.44L97.95 21.44L97.95 22.98L98 22.98C98.12 22.5 98.4 22.07 98.79 21.77C99.19 21.48 99.68 21.32 100.17 21.34C100.39 21.34 100.6 21.36 100.81 21.41L100.81 23.15C100.54 23.07 100.26 23.03 99.98 23.04C99.71 23.03 99.44 23.08 99.19 23.18C98.94 23.28 98.71 23.44 98.53 23.63C98.34 23.83 98.2 24.07 98.12 24.32C98.04 24.58 98.01 24.85 98.04 25.12L98.04 30.49L96.18 30.49L96.18 21.44ZM109.38 27.83C109.13 29.48 107.53 30.6 105.48 30.6C102.85 30.6 101.21 28.84 101.21 26.01C101.21 23.17 102.86 21.33 105.4 21.33C107.91 21.33 109.48 23.05 109.48 25.79L109.48 26.43L103.09 26.43L103.09 26.54C103.06 26.87 103.1 27.21 103.21 27.53C103.32 27.84 103.5 28.13 103.73 28.37C103.96 28.62 104.24 28.81 104.55 28.93C104.86 29.06 105.19 29.12 105.52 29.1C105.96 29.15 106.4 29.05 106.78 28.82C107.16 28.59 107.45 28.24 107.62 27.83L109.38 27.83ZM103.1 25.13L107.62 25.13C107.64 24.83 107.6 24.53 107.49 24.25C107.39 23.97 107.22 23.71 107.02 23.5C106.81 23.28 106.56 23.11 106.28 23C106 22.88 105.7 22.83 105.4 22.83C105.1 22.83 104.8 22.89 104.52 23C104.24 23.12 103.99 23.29 103.77 23.5C103.56 23.71 103.39 23.97 103.27 24.25C103.16 24.53 103.1 24.83 103.1 25.13ZM36.73 11.25L37.53 11.25C37.67 11.26 37.81 11.25 37.94 11.22C38.07 11.17 38.2 11.11 38.3 11.02C38.41 10.93 38.49 10.82 38.55 10.7C38.62 10.57 38.65 10.44 38.66 10.3C38.66 9.75 38.24 9.39 37.54 9.39C37.4 9.37 37.26 9.38 37.12 9.42C36.98 9.45 36.85 9.52 36.74 9.6C36.63 9.69 36.53 9.8 36.47 9.92C36.4 10.05 36.35 10.18 36.34 10.33L35.46 10.33C35.48 10.07 35.54 9.82 35.66 9.59C35.77 9.36 35.94 9.16 36.13 9C36.33 8.83 36.56 8.71 36.81 8.64C37.05 8.57 37.31 8.55 37.57 8.58C38.74 8.58 39.57 9.24 39.57 10.18C39.57 10.5 39.47 10.81 39.27 11.06C39.07 11.31 38.8 11.48 38.49 11.55L38.49 11.62C38.85 11.64 39.2 11.8 39.45 12.07C39.7 12.34 39.83 12.7 39.81 13.06C39.79 13.33 39.71 13.58 39.58 13.82C39.45 14.05 39.28 14.25 39.07 14.42C38.86 14.58 38.63 14.7 38.37 14.78C38.12 14.85 37.85 14.87 37.59 14.84C37.32 14.87 37.05 14.85 36.8 14.79C36.54 14.72 36.3 14.59 36.09 14.43C35.88 14.26 35.71 14.06 35.58 13.83C35.45 13.59 35.37 13.34 35.34 13.07L36.23 13.07C36.29 13.64 36.81 14.01 37.58 14.01C38.36 14.01 38.86 13.6 38.86 13.01C38.86 12.42 38.39 12.06 37.56 12.06L36.73 12.06L36.73 11.25ZM40.83 13.42C40.83 12.61 41.43 12.14 42.5 12.08L43.72 12L43.72 11.62C43.72 11.14 43.41 10.87 42.8 10.87C42.3 10.87 41.96 11.05 41.86 11.37L41 11.37C41.09 10.6 41.82 10.1 42.84 10.1C43.97 10.1 44.6 10.66 44.6 11.62L44.6 14.69L43.75 14.69L43.75 14.06L43.68 14.06C43.53 14.29 43.33 14.47 43.1 14.6C42.86 14.72 42.59 14.78 42.33 14.77C42.14 14.79 41.95 14.77 41.76 14.71C41.58 14.65 41.42 14.55 41.28 14.43C41.13 14.3 41.02 14.14 40.94 13.97C40.87 13.8 40.83 13.61 40.83 13.42ZM43.72 13.03L43.72 12.66L42.62 12.73C42 12.77 41.72 12.98 41.72 13.38C41.72 13.78 42.07 14.02 42.55 14.02C42.69 14.03 42.84 14.02 42.97 13.98C43.11 13.93 43.24 13.87 43.34 13.77C43.45 13.68 43.54 13.57 43.61 13.44C43.67 13.32 43.71 13.18 43.72 13.03ZM46.96 10.94L46.96 14.69L46.07 14.69L46.07 10.19L49.04 10.19L49.04 10.94L46.96 10.94ZM54.43 12.44C54.43 13.87 53.7 14.77 52.56 14.77C52.29 14.79 52.01 14.73 51.76 14.59C51.52 14.46 51.31 14.25 51.18 14.01L51.11 14.01L51.11 16.19L50.22 16.19L50.22 10.19L51.08 10.19L51.08 10.93L51.14 10.93C51.28 10.68 51.48 10.47 51.73 10.33C51.98 10.18 52.27 10.11 52.56 10.11C53.7 10.11 54.43 11.01 54.43 12.44ZM53.51 12.44C53.51 11.49 53.06 10.91 52.31 10.91C51.56 10.91 51.09 11.5 51.09 12.44C51.09 13.38 51.56 13.97 52.3 13.97C53.06 13.97 53.51 13.39 53.51 12.44ZM55.61 16.31L55.61 15.54C55.7 15.55 55.8 15.56 55.9 15.56C56.09 15.57 56.28 15.51 56.43 15.4C56.58 15.28 56.68 15.12 56.71 14.93L56.78 14.71L55.15 10.19L56.12 10.19L57.25 13.77L57.32 13.77L58.44 10.19L59.38 10.19L57.71 14.88C57.32 15.97 56.9 16.33 55.98 16.33C55.85 16.33 55.73 16.32 55.61 16.31L55.61 16.31ZM60.08 13.41L60.96 13.41C61.05 13.81 61.42 14.02 61.94 14.02C62.53 14.02 62.9 13.76 62.9 13.35C62.9 12.92 62.57 12.71 61.94 12.71L61.27 12.71L61.27 12.02L61.93 12.02C62.47 12.02 62.74 11.82 62.74 11.44C62.74 11.11 62.48 10.85 61.93 10.85C61.43 10.85 61.07 11.07 61.01 11.42L60.15 11.42C60.22 11.01 60.44 10.65 60.77 10.4C61.1 10.15 61.52 10.05 61.93 10.1C63 10.1 63.61 10.59 63.61 11.35C63.62 11.56 63.55 11.77 63.42 11.93C63.29 12.1 63.11 12.22 62.9 12.27L62.9 12.34C63.15 12.37 63.37 12.49 63.53 12.68C63.7 12.87 63.78 13.11 63.78 13.35C63.78 14.21 63.05 14.77 61.94 14.77C60.96 14.77 60.16 14.33 60.08 13.41ZM65.06 14.69L65.06 10.19L65.94 10.19L65.94 13.29L66.01 13.29L68.09 10.19L68.97 10.19L68.97 14.69L68.09 14.69L68.09 11.58L68.02 11.58L65.94 14.69L65.06 14.69ZM73.82 10.94L72.4 10.94L72.4 14.69L71.51 14.69L71.51 10.94L70.1 10.94L70.1 10.19L73.82 10.19L73.82 10.94ZM78.61 13.48C78.49 13.89 78.23 14.25 77.87 14.48C77.51 14.72 77.08 14.83 76.66 14.78C76.36 14.79 76.06 14.73 75.79 14.61C75.52 14.5 75.28 14.32 75.08 14.1C74.88 13.88 74.73 13.62 74.65 13.33C74.56 13.05 74.54 12.75 74.58 12.45C74.54 12.16 74.56 11.86 74.65 11.58C74.73 11.29 74.88 11.03 75.08 10.81C75.27 10.58 75.52 10.41 75.79 10.28C76.06 10.16 76.35 10.1 76.65 10.1C77.91 10.1 78.66 10.96 78.66 12.37L78.66 12.68L75.48 12.68L75.48 12.73C75.47 12.9 75.49 13.07 75.54 13.22C75.6 13.38 75.68 13.52 75.8 13.64C75.91 13.76 76.05 13.86 76.2 13.93C76.35 13.99 76.52 14.02 76.68 14.02C76.89 14.05 77.11 14.01 77.3 13.91C77.49 13.82 77.65 13.66 77.75 13.48L78.61 13.48ZM75.48 12.03L77.75 12.03C77.77 11.87 77.75 11.72 77.7 11.58C77.64 11.44 77.56 11.31 77.46 11.2C77.36 11.09 77.23 11 77.09 10.94C76.95 10.88 76.8 10.86 76.65 10.86C76.49 10.86 76.34 10.89 76.2 10.94C76.06 11 75.93 11.09 75.82 11.2C75.71 11.31 75.62 11.43 75.57 11.58C75.51 11.72 75.48 11.87 75.48 12.03ZM82.37 10.19L84.41 10.19C85.29 10.19 85.8 10.64 85.8 11.33C85.8 11.56 85.73 11.77 85.59 11.94C85.45 12.12 85.26 12.24 85.04 12.29L85.04 12.36C85.31 12.37 85.55 12.49 85.73 12.68C85.91 12.88 86.01 13.13 86 13.39C86 14.18 85.42 14.69 84.43 14.69L82.38 14.69L82.37 10.19ZM83.26 10.87L83.26 12.04L84.14 12.04C84.67 12.04 84.93 11.83 84.93 11.45C84.93 11.1 84.71 10.87 84.24 10.87L83.26 10.87ZM83.26 12.69L83.26 14.01L84.31 14.01C84.84 14.01 85.12 13.78 85.12 13.35C85.12 12.9 84.8 12.69 84.2 12.69L83.26 12.69Z" fill="#FFFFFF" fill-opacity="1.000000" fill-rule="evenodd"/>
	</g>
</svg>
