<svg width="135.000000" height="40.000000" viewBox="0 0 135 40" fill="none" xmlns="http://www.w3.org/2000/svg" xmlns:xlink="http://www.w3.org/1999/xlink">
	<desc>
			Created with Pixso.
	</desc>
	<defs>
		<linearGradient x1="21.799902" y1="8.710713" x2="5.019903" y2="25.490711" id="paint_linear_3_923_0" gradientUnits="userSpaceOnUse">
			<stop stop-color="#00A0FF"/>
			<stop offset="0.010000" stop-color="#00A1FF"/>
			<stop offset="0.260000" stop-color="#00BEFF"/>
			<stop offset="0.510000" stop-color="#00D2FF"/>
			<stop offset="0.760000" stop-color="#00DFFF"/>
			<stop offset="1.000000" stop-color="#00E3FF"/>
		</linearGradient>
		<linearGradient x1="33.829903" y1="20.000704" x2="9.639902" y2="20.000704" id="paint_linear_3_927_0" gradientUnits="userSpaceOnUse">
			<stop stop-color="#FFE000"/>
			<stop offset="0.410000" stop-color="#FFBD00"/>
			<stop offset="0.780000" stop-color="#FFA500"/>
			<stop offset="1.000000" stop-color="#FF9C00"/>
		</linearGradient>
		<linearGradient x1="24.829941" y1="22.300001" x2="2.069939" y2="45.050003" id="paint_linear_3_938_0" gradientUnits="userSpaceOnUse">
			<stop stop-color="#FF3A44"/>
			<stop offset="1.000000" stop-color="#C31162"/>
		</linearGradient>
		<linearGradient x1="7.299932" y1="0.180536" x2="17.459930" y2="10.340536" id="paint_linear_3_942_0" gradientUnits="userSpaceOnUse">
			<stop stop-color="#32A071"/>
			<stop offset="0.070000" stop-color="#2DA771"/>
			<stop offset="0.480000" stop-color="#15CF74"/>
			<stop offset="0.800000" stop-color="#06E775"/>
			<stop offset="1.000000" stop-color="#00F076"/>
		</linearGradient>
	</defs>
	<path id="Vector" d="M130 0L5 0C3.67 0 2.4 0.52 1.46 1.46C0.52 2.4 0 3.67 0 5L0 35C0 36.32 0.52 37.59 1.46 38.53C2.4 39.47 3.67 40 5 40L130 40C131.32 40 132.59 39.47 133.53 38.53C134.47 37.59 135 36.32 135 35L135 5C135 3.67 134.47 2.4 133.53 1.46C132.59 0.52 131.32 0 130 0Z" fill="#000000" fill-opacity="1.000000" fill-rule="evenodd"/>
	<path id="Vector" d="M130 0.8C131.11 0.8 132.18 1.24 132.97 2.02C133.75 2.81 134.2 3.88 134.2 5L134.2 35C134.2 36.11 133.75 37.18 132.97 37.97C132.18 38.75 131.11 39.19 130 39.19L5 39.19C3.88 39.19 2.81 38.75 2.03 37.97C1.24 37.18 0.79 36.11 0.79 35L0.79 5C0.79 3.88 1.24 2.81 2.03 2.02C2.81 1.24 3.88 0.8 5 0.8L130 0.8ZM130 0L5 0C3.67 0 2.4 0.52 1.46 1.46C0.52 2.4 0 3.67 0 5L0 35C0 36.32 0.52 37.59 1.46 38.53C2.4 39.47 3.67 40 5 40L130 40C131.32 40 132.59 39.47 133.53 38.53C134.47 37.59 135 36.32 135 35L135 5C135 3.67 134.47 2.4 133.53 1.46C132.59 0.52 131.32 0 130 0Z" fill="#A6A6A6" fill-opacity="1.000000" fill-rule="evenodd"/>
	<path id="Vector" d="M68.14 21.75C67.3 21.75 66.48 22 65.78 22.47C65.08 22.94 64.54 23.61 64.22 24.38C63.9 25.16 63.82 26.01 63.99 26.84C64.16 27.66 64.56 28.41 65.16 29.01C65.75 29.6 66.51 30 67.33 30.16C68.16 30.33 69.01 30.24 69.79 29.92C70.56 29.6 71.22 29.05 71.69 28.35C72.16 27.66 72.41 26.83 72.41 26C72.41 25.43 72.31 24.88 72.1 24.35C71.88 23.83 71.57 23.36 71.17 22.96C70.77 22.57 70.3 22.25 69.78 22.05C69.26 21.84 68.7 21.74 68.14 21.75ZM68.14 28.58C67.62 28.61 67.1 28.49 66.66 28.23C66.21 27.97 65.85 27.58 65.63 27.11C65.4 26.65 65.33 26.12 65.4 25.61C65.48 25.1 65.71 24.62 66.07 24.25C66.42 23.86 66.88 23.6 67.38 23.49C67.89 23.37 68.41 23.41 68.9 23.6C69.38 23.79 69.79 24.12 70.08 24.54C70.38 24.97 70.53 25.48 70.54 26C70.55 26.32 70.5 26.65 70.39 26.96C70.28 27.27 70.1 27.55 69.88 27.79C69.66 28.03 69.39 28.23 69.09 28.36C68.79 28.5 68.46 28.57 68.14 28.58ZM58.83 21.75C57.98 21.75 57.16 22 56.47 22.47C55.77 22.93 55.23 23.6 54.91 24.38C54.59 25.15 54.5 26.01 54.67 26.83C54.83 27.65 55.24 28.41 55.83 29C56.43 29.6 57.19 30 58.01 30.16C58.83 30.33 59.69 30.24 60.46 29.92C61.24 29.6 61.9 29.05 62.37 28.35C62.84 27.66 63.09 26.83 63.09 26C63.09 25.43 62.99 24.88 62.78 24.35C62.56 23.83 62.25 23.36 61.85 22.96C61.45 22.57 60.98 22.25 60.46 22.05C59.94 21.84 59.38 21.74 58.82 21.75L58.83 21.75ZM58.83 28.58C58.31 28.61 57.79 28.5 57.34 28.24C56.9 27.98 56.54 27.59 56.31 27.12C56.09 26.66 56.01 26.13 56.08 25.62C56.16 25.11 56.39 24.63 56.74 24.25C57.09 23.87 57.55 23.6 58.06 23.49C58.56 23.37 59.09 23.41 59.57 23.6C60.06 23.79 60.47 24.12 60.76 24.54C61.06 24.97 61.21 25.48 61.22 26C61.23 26.32 61.18 26.65 61.07 26.96C60.96 27.27 60.78 27.55 60.56 27.79C60.34 28.03 60.07 28.23 59.77 28.36C59.47 28.5 59.14 28.57 58.82 28.58L58.83 28.58ZM47.74 23.06L47.74 24.85L52.06 24.85C51.99 25.7 51.63 26.5 51.06 27.13C50.62 27.57 50.1 27.91 49.53 28.14C48.96 28.36 48.34 28.47 47.73 28.44C47.09 28.44 46.47 28.32 45.89 28.08C45.31 27.84 44.78 27.49 44.33 27.04C43.89 26.59 43.53 26.07 43.29 25.48C43.05 24.9 42.93 24.28 42.93 23.65C42.93 23.01 43.05 22.39 43.29 21.81C43.53 21.23 43.89 20.7 44.33 20.25C44.78 19.81 45.31 19.45 45.89 19.21C46.47 18.97 47.09 18.84 47.73 18.84C48.94 18.83 50.12 19.29 51 20.14L52.27 18.86C51.67 18.27 50.97 17.79 50.19 17.47C49.41 17.15 48.58 16.99 47.74 17C46.85 16.96 45.96 17.11 45.14 17.43C44.31 17.75 43.55 18.23 42.91 18.85C42.28 19.46 41.77 20.2 41.42 21.02C41.07 21.83 40.9 22.71 40.9 23.6C40.9 24.49 41.07 25.37 41.42 26.18C41.77 27 42.28 27.74 42.91 28.35C43.55 28.97 44.31 29.45 45.14 29.77C45.96 30.09 46.85 30.24 47.74 30.21C48.59 30.24 49.45 30.1 50.24 29.78C51.04 29.46 51.75 28.98 52.35 28.35C53.39 27.2 53.95 25.69 53.91 24.14C53.91 23.76 53.87 23.38 53.81 23L47.74 23.06ZM93.05 24.46C92.78 23.69 92.3 23.02 91.65 22.53C91 22.05 90.21 21.77 89.41 21.75C88.86 21.75 88.32 21.85 87.81 22.07C87.31 22.29 86.86 22.6 86.48 23C86.11 23.4 85.82 23.87 85.63 24.39C85.45 24.9 85.37 25.45 85.41 26C85.39 26.55 85.49 27.11 85.7 27.63C85.91 28.15 86.22 28.62 86.61 29.02C87.01 29.41 87.48 29.73 87.99 29.94C88.51 30.15 89.07 30.25 89.63 30.25C90.32 30.25 91.01 30.08 91.63 29.75C92.25 29.42 92.78 28.95 93.17 28.36L91.72 27.36C91.5 27.73 91.19 28.02 90.83 28.23C90.46 28.44 90.05 28.55 89.63 28.55C89.19 28.56 88.76 28.45 88.4 28.22C88.03 27.99 87.74 27.65 87.57 27.25L93.26 24.91L93.05 24.46ZM87.25 25.88C87.22 25.57 87.27 25.25 87.37 24.96C87.47 24.67 87.63 24.4 87.83 24.17C88.04 23.94 88.29 23.75 88.57 23.62C88.85 23.49 89.16 23.41 89.47 23.4C89.79 23.37 90.11 23.45 90.39 23.61C90.67 23.77 90.9 24.01 91.05 24.3L87.25 25.88ZM82.63 30L84.5 30L84.5 17.5L82.63 17.5L82.63 30ZM79.57 22.69L79.5 22.69C79.21 22.38 78.87 22.13 78.48 21.96C78.1 21.78 77.68 21.69 77.26 21.69C76.16 21.75 75.13 22.22 74.38 23.01C73.62 23.8 73.2 24.86 73.2 25.95C73.2 27.04 73.62 28.1 74.38 28.89C75.13 29.68 76.16 30.15 77.26 30.21C77.68 30.21 78.1 30.13 78.49 29.95C78.87 29.78 79.22 29.53 79.5 29.21L79.56 29.21L79.56 29.82C79.56 31.44 78.69 32.32 77.29 32.32C76.82 32.3 76.37 32.16 75.99 31.89C75.6 31.62 75.31 31.24 75.15 30.81L73.51 31.49C73.82 32.23 74.34 32.87 75.02 33.32C75.69 33.76 76.48 34 77.29 34C79.48 34 81.29 32.71 81.29 29.57L81.29 22L79.57 22L79.57 22.69ZM77.43 28.58C76.78 28.52 76.18 28.22 75.74 27.75C75.31 27.27 75.06 26.64 75.06 26C75.06 25.35 75.31 24.72 75.74 24.25C76.18 23.77 76.78 23.47 77.43 23.41C77.74 23.43 78.06 23.51 78.35 23.65C78.63 23.79 78.89 23.99 79.1 24.23C79.32 24.47 79.48 24.75 79.58 25.05C79.68 25.35 79.72 25.68 79.69 26C79.72 26.32 79.68 26.64 79.58 26.94C79.48 27.25 79.32 27.53 79.11 27.77C78.89 28.01 78.63 28.21 78.34 28.35C78.05 28.49 77.74 28.56 77.42 28.58L77.43 28.58ZM101.81 17.5L97.34 17.5L97.34 30L99.21 30L99.21 25.25L101.82 25.25C102.35 25.29 102.88 25.22 103.38 25.04C103.89 24.86 104.35 24.58 104.73 24.22C105.12 23.85 105.43 23.41 105.65 22.92C105.86 22.43 105.97 21.91 105.97 21.38C105.97 20.84 105.86 20.32 105.65 19.83C105.43 19.34 105.12 18.9 104.73 18.53C104.35 18.17 103.89 17.89 103.38 17.71C102.88 17.53 102.35 17.46 101.82 17.5L101.81 17.5ZM101.81 23.5L99.2 23.5L99.2 19.24L101.85 19.24C102.27 19.24 102.68 19.36 103.04 19.6C103.39 19.83 103.66 20.17 103.82 20.56C103.99 20.95 104.03 21.38 103.95 21.8C103.87 22.21 103.66 22.6 103.36 22.9C102.96 23.3 102.41 23.52 101.85 23.52L101.81 23.5ZM113.34 21.69C112.65 21.66 111.98 21.81 111.39 22.15C110.79 22.49 110.31 23 110.01 23.6L111.67 24.3C111.83 23.99 112.08 23.75 112.38 23.58C112.68 23.42 113.02 23.35 113.37 23.38C113.72 23.33 114.08 23.4 114.4 23.57C114.72 23.73 114.99 23.99 115.16 24.31C115.27 24.52 115.34 24.75 115.37 24.99L115.37 25.11C114.77 24.8 114.1 24.63 113.42 24.64C111.63 24.64 109.82 25.64 109.82 27.44C109.83 27.83 109.93 28.21 110.1 28.56C110.26 28.91 110.5 29.22 110.78 29.48C111.07 29.73 111.41 29.93 111.78 30.05C112.14 30.17 112.53 30.22 112.92 30.19C113.39 30.23 113.86 30.14 114.28 29.92C114.7 29.71 115.06 29.39 115.32 29L115.38 29L115.38 30L117.18 30L117.18 25.18C117.18 23 115.52 21.73 113.39 21.73L113.34 21.69ZM113.11 28.55C112.5 28.55 111.65 28.24 111.65 27.49C111.65 26.49 112.71 26.16 113.65 26.16C114.24 26.14 114.83 26.28 115.35 26.58C115.28 27.12 115.03 27.62 114.62 27.98C114.22 28.35 113.7 28.56 113.16 28.58L113.11 28.55ZM123.74 22L121.6 27.41L121.54 27.41L119.32 22L117.32 22L120.65 29.58L118.75 33.79L120.7 33.79L125.82 22L123.74 22ZM106.93 30L108.8 30L108.8 17.5L106.93 17.5L106.93 30Z" fill="#FFFFFF" fill-opacity="1.000000" fill-rule="evenodd"/>
	<path id="Vector" d="M10.43 7.54C10.11 7.93 9.94 8.43 9.97 8.94L9.97 31.06C9.94 31.56 10.11 32.07 10.43 32.46L10.5 32.53L22.89 20.15L22.89 19.86L10.5 7.47L10.43 7.54Z" fill="url(#paint_linear_3_923_0)" fill-opacity="1.000000" fill-rule="nonzero"/>
	<path id="Vector" d="M26.99 24.28L22.89 20.15L22.89 19.86L26.99 15.72L27.08 15.77L31.99 18.56C33.39 19.35 33.39 20.65 31.99 21.45L27.1 24.23L26.99 24.28Z" fill="url(#paint_linear_3_927_0)" fill-opacity="1.000000" fill-rule="nonzero"/>
	<path id="Vector" d="M27.11 24.22L22.9 20L10.43 32.46C10.72 32.71 11.08 32.85 11.46 32.86C11.84 32.87 12.22 32.75 12.52 32.51L27.12 24.22L27.11 24.22Z" fill="url(#paint_linear_3_938_0)" fill-opacity="1.000000" fill-rule="nonzero"/>
	<path id="Vector" d="M27.11 15.78L12.5 7.48C12.21 7.24 11.83 7.12 11.45 7.13C11.07 7.14 10.71 7.28 10.42 7.54L22.89 20L27.11 15.78Z" fill="url(#paint_linear_3_942_0)" fill-opacity="1.000000" fill-rule="nonzero"/>
	<g opacity="0.200000">
		<path id="Vector" d="M26.99 24.13L12.5 32.38C12.22 32.59 11.87 32.71 11.5 32.71C11.14 32.71 10.79 32.59 10.5 32.38L10.43 32.45L10.5 32.52C10.79 32.73 11.14 32.85 11.5 32.85C11.87 32.85 12.22 32.73 12.5 32.52L27.11 24.22L26.99 24.13Z" fill="#000000" fill-opacity="1.000000" fill-rule="evenodd"/>
	</g>
	<g opacity="0.120000">
		<path id="Vector" d="M10.43 32.32C10.11 31.92 9.94 31.42 9.97 30.91L9.97 31.07C9.94 31.57 10.11 32.07 10.43 32.47L10.5 32.4L10.43 32.32ZM31.99 21.3L26.99 24.13L27.08 24.22L31.99 21.43C32.27 21.3 32.51 21.1 32.69 20.85C32.86 20.6 32.97 20.3 32.99 20C32.94 20.27 32.82 20.54 32.65 20.76C32.47 20.99 32.25 21.17 31.99 21.3Z" fill="#000000" fill-opacity="1.000000" fill-rule="evenodd"/>
	</g>
	<g opacity="0.250000">
		<path id="Vector" d="M12.5 7.62L32 18.7C32.25 18.82 32.47 19 32.65 19.23C32.82 19.45 32.94 19.72 33 20C32.97 19.69 32.86 19.39 32.69 19.14C32.51 18.89 32.27 18.69 32 18.56L12.5 7.48C11.11 6.68 9.96 7.34 9.96 8.95L9.96 9.09C10 7.49 11.12 6.83 12.5 7.62Z" fill="#FFFFFF" fill-opacity="1.000000" fill-rule="evenodd"/>
	</g>
	<path id="Vector" d="M42.1 14.26L41.36 14.26L41.36 12.26L41.99 12.26C42.28 11.96 42.5 11.6 42.63 11.2C42.76 10.8 42.8 10.38 42.75 9.96L42.75 7L46.75 7L46.75 12.25L47.42 12.25L47.42 14.25L46.68 14.25L46.68 13L42.1 13L42.1 14.26ZM43.49 10C43.54 10.8 43.34 11.6 42.92 12.29L45.92 12.29L45.92 7.74L43.49 7.74L43.49 10ZM53.4 12.21C52.82 12.8 52.03 13.12 51.2 13.12C50.38 13.12 49.59 12.8 49 12.21C48.44 11.61 48.12 10.82 48.12 9.99C48.12 9.16 48.44 8.37 49 7.76C49.29 7.47 49.64 7.24 50.01 7.09C50.39 6.93 50.8 6.85 51.2 6.85C51.61 6.85 52.02 6.93 52.4 7.09C52.77 7.24 53.12 7.47 53.4 7.76C53.98 8.36 54.29 9.16 54.29 9.99C54.29 10.82 53.98 11.61 53.4 12.21ZM49.57 11.71C50.01 12.15 50.59 12.39 51.2 12.39C51.82 12.39 52.4 12.15 52.83 11.71C53.26 11.24 53.5 10.63 53.5 10C53.5 9.36 53.26 8.75 52.83 8.27C52.4 7.84 51.82 7.6 51.2 7.6C50.59 7.6 50.01 7.84 49.57 8.27C49.15 8.75 48.91 9.36 48.91 10C48.91 10.63 49.15 11.24 49.57 11.71ZM58.17 13.12C57.76 13.13 57.35 13.06 56.97 12.9C56.59 12.75 56.24 12.52 55.95 12.23C55.66 11.93 55.43 11.58 55.27 11.2C55.12 10.82 55.05 10.41 55.05 10C55.05 9.58 55.12 9.17 55.27 8.79C55.43 8.41 55.66 8.06 55.95 7.76C56.24 7.47 56.59 7.24 56.97 7.09C57.35 6.93 57.76 6.86 58.17 6.86C58.59 6.85 59.01 6.94 59.39 7.11C59.77 7.29 60.11 7.54 60.37 7.86L59.83 8.38C59.64 8.13 59.38 7.93 59.09 7.8C58.8 7.67 58.48 7.61 58.16 7.62C57.86 7.62 57.55 7.67 57.27 7.78C56.98 7.9 56.72 8.07 56.5 8.28C56.07 8.76 55.83 9.38 55.83 10.02C55.83 10.66 56.07 11.28 56.5 11.75C56.72 11.97 56.98 12.14 57.27 12.25C57.55 12.37 57.86 12.42 58.16 12.41C58.52 12.41 58.86 12.33 59.18 12.18C59.5 12.02 59.78 11.8 59.99 11.52L60.53 12.07C60.26 12.4 59.92 12.66 59.53 12.84C59.11 13.04 58.64 13.13 58.17 13.12ZM63.67 13L62.9 13L62.9 7.74L61.22 7.74L61.22 7L65.34 7L65.34 7.74L63.67 7.74L63.67 13ZM70.64 7L68.37 12.05C68.28 12.35 68.1 12.62 67.86 12.81C67.61 13 67.31 13.11 66.99 13.12C66.79 13.12 66.58 13.08 66.39 13L66.59 12.28C66.72 12.35 66.85 12.39 66.99 12.4C67.14 12.41 67.29 12.37 67.41 12.29C67.54 12.19 67.63 12.06 67.68 11.91L67.9 11.43L65.9 7L66.81 7L68.29 10.44L69.73 7L70.64 7ZM71.51 13L71.51 7L75.85 7L75.85 13L75.08 13L75.08 7.74L72.28 7.74L72.28 13L71.51 13ZM77.22 13L77.22 7L77.99 7L77.99 9.57L80.99 9.57L80.99 7L81.76 7L81.76 13L80.99 13L80.99 10.28L77.99 10.28L77.99 13L77.22 13ZM88.05 12.21C87.47 12.8 86.68 13.12 85.85 13.12C85.03 13.12 84.24 12.8 83.65 12.21C83.09 11.61 82.77 10.82 82.77 9.99C82.77 9.16 83.09 8.37 83.65 7.76C83.94 7.47 84.29 7.24 84.66 7.09C85.04 6.93 85.45 6.85 85.85 6.85C86.26 6.85 86.67 6.93 87.05 7.09C87.42 7.24 87.77 7.47 88.05 7.76C88.63 8.36 88.94 9.16 88.94 9.99C88.94 10.82 88.63 11.61 88.05 12.21ZM84.22 11.71C84.66 12.15 85.24 12.39 85.85 12.39C86.47 12.39 87.05 12.15 87.48 11.71C87.91 11.24 88.15 10.63 88.15 10C88.15 9.36 87.91 8.75 87.48 8.27C87.05 7.84 86.47 7.6 85.85 7.6C85.24 7.6 84.66 7.84 84.22 8.27C83.8 8.75 83.56 9.36 83.56 10C83.56 10.63 83.8 11.24 84.22 11.71ZM92.08 13L92.08 7L94.25 7C94.71 6.99 95.14 7.15 95.47 7.45C95.64 7.6 95.78 7.78 95.87 7.98C95.95 8.18 96 8.4 95.99 8.62C96 8.89 95.92 9.15 95.77 9.37C95.63 9.59 95.42 9.76 95.18 9.86C95.47 9.96 95.73 10.14 95.91 10.38C96.11 10.63 96.21 10.93 96.2 11.25C96.21 11.48 96.16 11.7 96.07 11.91C95.98 12.13 95.84 12.31 95.66 12.46C95.32 12.79 94.86 12.96 94.38 12.95L92.08 13ZM92.85 9.57L94.25 9.57C94.39 9.57 94.52 9.55 94.64 9.5C94.76 9.45 94.87 9.37 94.95 9.27C95.04 9.19 95.11 9.1 95.17 8.99C95.22 8.88 95.24 8.76 95.25 8.64C95.25 8.52 95.23 8.41 95.19 8.29C95.14 8.18 95.08 8.08 94.99 8C94.91 7.9 94.81 7.83 94.69 7.77C94.58 7.73 94.45 7.7 94.32 7.7L92.89 7.7L92.85 9.57ZM92.85 12.25L94.4 12.25C94.54 12.26 94.68 12.23 94.8 12.18C94.92 12.13 95.04 12.05 95.12 11.94C95.3 11.76 95.4 11.52 95.4 11.26C95.4 11 95.3 10.75 95.11 10.56C94.92 10.37 94.67 10.26 94.4 10.26L92.88 10.26L92.85 12.25Z" fill="#FFFFFF" fill-opacity="1.000000" fill-rule="evenodd"/>
	<path id="Vector" d="M41.36 14.26L41.36 12.26L41.99 12.26C42.28 11.96 42.5 11.6 42.63 11.2C42.76 10.8 42.8 10.38 42.75 9.96L42.75 7L46.75 7L46.75 12.25L47.42 12.25L47.42 14.25L46.68 14.25L46.68 13L42.1 13L42.1 14.26L41.36 14.26ZM42.92 12.29L45.92 12.29L45.92 7.74L43.49 7.74L43.49 10C43.54 10.8 43.34 11.6 42.92 12.29ZM51.2 13.12C50.38 13.12 49.59 12.8 49 12.21C48.44 11.61 48.12 10.82 48.12 9.99C48.12 9.16 48.44 8.37 49 7.76C49.29 7.47 49.64 7.24 50.01 7.09C50.39 6.93 50.8 6.85 51.2 6.85C51.61 6.85 52.02 6.93 52.4 7.09C52.77 7.24 53.12 7.47 53.4 7.76C53.98 8.36 54.29 9.16 54.29 9.99C54.29 10.82 53.98 11.61 53.4 12.21C52.82 12.8 52.03 13.12 51.2 13.12ZM51.2 12.39C51.82 12.39 52.4 12.15 52.83 11.71C53.26 11.24 53.5 10.63 53.5 10C53.5 9.36 53.26 8.75 52.83 8.27C52.4 7.84 51.82 7.6 51.2 7.6C50.59 7.6 50.01 7.84 49.57 8.27C49.15 8.75 48.91 9.36 48.91 10C48.91 10.63 49.15 11.24 49.57 11.71C50.01 12.15 50.59 12.39 51.2 12.39ZM56.97 12.9C56.59 12.75 56.24 12.52 55.95 12.23C55.66 11.93 55.43 11.58 55.27 11.2C55.12 10.82 55.05 10.41 55.05 10C55.05 9.58 55.12 9.17 55.27 8.79C55.43 8.41 55.66 8.06 55.95 7.76C56.24 7.47 56.59 7.24 56.97 7.09C57.35 6.93 57.76 6.86 58.17 6.86C58.59 6.85 59.01 6.94 59.39 7.11C59.77 7.29 60.11 7.54 60.37 7.86L59.83 8.38C59.64 8.13 59.38 7.93 59.09 7.8C58.8 7.67 58.48 7.61 58.16 7.62C57.86 7.62 57.55 7.67 57.27 7.78C56.98 7.9 56.72 8.07 56.5 8.28C56.07 8.76 55.83 9.38 55.83 10.02C55.83 10.66 56.07 11.28 56.5 11.75C56.72 11.97 56.98 12.14 57.27 12.25C57.55 12.37 57.86 12.42 58.16 12.41C58.52 12.41 58.86 12.33 59.18 12.18C59.5 12.02 59.78 11.8 59.99 11.52L60.53 12.07C60.26 12.4 59.92 12.66 59.53 12.84C59.11 13.04 58.64 13.13 58.17 13.12C57.76 13.13 57.35 13.06 56.97 12.9ZM62.9 13L62.9 7.74L61.22 7.74L61.22 7L65.34 7L65.34 7.74L63.67 7.74L63.67 13L62.9 13ZM68.37 12.05C68.28 12.35 68.1 12.62 67.86 12.81C67.61 13 67.31 13.11 66.99 13.12C66.79 13.12 66.58 13.08 66.39 13L66.59 12.28C66.72 12.35 66.85 12.39 66.99 12.4C67.14 12.41 67.29 12.37 67.41 12.29C67.54 12.19 67.63 12.06 67.68 11.91L67.9 11.43L65.9 7L66.81 7L68.29 10.44L69.73 7L70.64 7L68.37 12.05ZM71.51 7L75.85 7L75.85 13L75.08 13L75.08 7.74L72.28 7.74L72.28 13L71.51 13L71.51 7ZM77.22 7L77.99 7L77.99 9.57L80.99 9.57L80.99 7L81.76 7L81.76 13L80.99 13L80.99 10.28L77.99 10.28L77.99 13L77.22 13L77.22 7ZM85.85 13.12C85.03 13.12 84.24 12.8 83.65 12.21C83.09 11.61 82.77 10.82 82.77 9.99C82.77 9.16 83.09 8.37 83.65 7.76C83.94 7.47 84.29 7.24 84.66 7.09C85.04 6.93 85.45 6.85 85.85 6.85C86.26 6.85 86.67 6.93 87.05 7.09C87.42 7.24 87.77 7.47 88.05 7.76C88.63 8.36 88.94 9.16 88.94 9.99C88.94 10.82 88.63 11.61 88.05 12.21C87.47 12.8 86.68 13.12 85.85 13.12ZM85.85 12.39C86.47 12.39 87.05 12.15 87.48 11.71C87.91 11.24 88.15 10.63 88.15 10C88.15 9.36 87.91 8.75 87.48 8.27C87.05 7.84 86.47 7.6 85.85 7.6C85.24 7.6 84.66 7.84 84.22 8.27C83.8 8.75 83.56 9.36 83.56 10C83.56 10.63 83.8 11.24 84.22 11.71C84.66 12.15 85.24 12.39 85.85 12.39ZM92.08 7L94.25 7C94.71 6.99 95.14 7.15 95.47 7.45C95.64 7.6 95.78 7.78 95.87 7.98C95.95 8.18 96 8.4 95.99 8.62C96 8.89 95.92 9.15 95.77 9.37C95.63 9.59 95.42 9.76 95.18 9.86C95.47 9.96 95.73 10.14 95.91 10.38C96.11 10.63 96.21 10.93 96.2 11.25C96.21 11.48 96.16 11.7 96.07 11.91C95.98 12.13 95.84 12.31 95.66 12.46C95.32 12.79 94.86 12.96 94.38 12.95L92.08 13L92.08 7ZM94.25 9.57C94.39 9.57 94.52 9.55 94.64 9.5C94.76 9.45 94.87 9.37 94.95 9.27C95.04 9.19 95.11 9.1 95.17 8.99C95.22 8.88 95.24 8.76 95.25 8.64C95.25 8.52 95.23 8.41 95.19 8.29C95.14 8.18 95.08 8.08 94.99 8C94.91 7.9 94.81 7.83 94.69 7.77C94.58 7.73 94.45 7.7 94.32 7.7L92.89 7.7L92.85 9.57L94.25 9.57ZM94.4 12.25C94.54 12.26 94.68 12.23 94.8 12.18C94.92 12.13 95.04 12.05 95.12 11.94C95.3 11.76 95.4 11.52 95.4 11.26C95.4 11 95.3 10.75 95.11 10.56C94.92 10.37 94.67 10.26 94.4 10.26L92.88 10.26L92.85 12.25L94.4 12.25Z" stroke="#FFFFFF" stroke-opacity="1.000000" stroke-width="0.200000"/>
</svg>
