<svg xmlns="http://www.w3.org/2000/svg" width="301.53" height="254.986" fill="none"
	viewBox="0 0 301.53 254.986">
	<path fill="#F8F8F8"
		d="M212.98 20.13c31.03 7.68 56.55 41.32 56.15 74.48-.38 33.1-26.69 65.72-48.7 97.12-21.95 31.39-39.49 61.59-61.68 63.19-22.22 1.57-49.06-25.48-71.27-43.42-22.28-17.93-39.88-26.77-55.04-42.54C17.28 153.2 4.63 130.5 7.59 110.17c2.96-20.33 21.56-38.26 41-48.05 19.51-9.85 39.81-11.55 68.27-21.54 28.46-9.99 65.06-28.19 96.12-20.45Z" />
	<path stroke="#DFDFDF" stroke-linecap="round" stroke-linejoin="round" stroke-width="5"
		d="M197.27 173.62 156.7 91.04c-1.23-.74-6.2-4.03-6.2-4.03M153.79 97.58c-.48-1.65-1.93-5.06-1.93-5.06-.89-.05-7.08-3.33-7.08-3.33M143.02 89.49l19.22-8.08" />
	<path fill="#000"
		d="M4.94 215.64 0 220.35l11.86 16.04 3.67-3.35-5.65-14.27-4.94-3.13ZM100.72 201l-4.09 7.76 10.14 16.28 4.28-1.14-2.81-21.24-7.52-1.66Z" />
	<path fill="#D37C59" fill-rule="evenodd"
		d="M152.98 86.4c0 2.56-2.7 4.64-6.04 4.64-3.33 0-6.03-2.08-6.03-4.64 0-2.57 2.7-4.65 6.03-4.65 3.34 0 6.04 2.08 6.04 4.65Z" />
	<path fill="#56CAD8"
		d="M66.4 91.3c-2.72 4-62.39 124.81-62.39 124.81l6.75 4.25 78.75-87.86L66.4 91.3Z" />
	<path fill="#D37C59"
		d="M117.81 61.99c1.55 1.36 6.09 6.68 7.58 7.65 1.49.97 18.53 11.93 21.72 12.89 3.2.97-3.59 3.85-3.59 3.85s-22.2-5.07-23.84-6.2c-1.64-1.13-11.37-9.2-11.37-11.36 0-2.17 9.5-6.83 9.5-6.83Z" />
	<path fill="#FCC486"
		d="M104.8 51.59c4.95-5.54 14.63 7.6 14.42 9.53-.21 1.93-7.05 10.03-11.39 10.03-1.3 0-6.51-15.67-3.03-19.56Z" />
	<path fill="#74D5DE"
		d="M65.63 92.52c-1.16 1.6-6.21 14.39-6.21 18.79 0 30 43.38 37.78 49.61 37.78-.9 4.19-10.44 51.75-9.99 52.79.45 1.05 8.36 3.18 9.99 2.9 6.2-3.48 26.24-51.99 24.73-58.89-2.11-9.66-35.29-37.94-40.09-40.75-4.79-2.82-28.04-12.62-28.04-12.62Z" />
	<path fill="#FED385"
		d="M94.28 39.19c33.39 0 7.53 64.7 1.65 68.21-3.88 2.31-27.93-6.48-30.5-15.3-.88-3.01 10.41-52.91 28.85-52.91Z" />
	<path fill="#DE8E68" fill-rule="evenodd"
		d="M147.9 88.59c0 2.56-2.7 4.64-6.04 4.64-3.33 0-6.03-2.08-6.03-4.64 0-2.57 2.7-4.65 6.03-4.65 3.34 0 6.04 2.08 6.04 4.65Z" />
	<path fill="#DE8E68"
		d="M83.63 69.06c.08 3.27 1.14 18.25 2.45 18.7 15.91 5.47 43.45 3.06 48.2 2.73 4.76-.33 7.81-3.78 7.57-4.6-.24-.82-15.19-7.11-41.16-7.85-.48-3.02.67-12.16-.51-12.98-1.19-.81-16.55 4-16.55 4Z" />
	<path fill="#FED892"
		d="M88.05 41.96c13.81-2.91 16.29 23.68 14.96 25.64-1.32 1.96-18.92 4.73-21.22 3.02-2.3-1.72-4.22-26.46 6.26-28.66Z" />
	<path fill="#D37C59"
		d="M97.45 22.66c-.64 2.5-4.98 16.83-4.71 17.59.26.76 6.24 4.11 8.53 3.75.09-1.1 1.06-6.94 3.06-10.46 1.99-3.51-6.88-10.88-6.88-10.88Z" />
	<path fill="#DE8E68" fill-rule="evenodd"
		d="M107.59 7.99c4.91.52 8.29 7.11 7.54 14.74-.74 7.62-5.33 13.39-10.25 12.88-4.91-.51-8.29-7.11-7.54-14.74.74-7.62 5.33-13.39 10.25-12.88Z" />
	<path fill="#FD8369"
		d="M96.48 22.66c-1.02-.58-2.94-3.97-2.94-7.12 0-4.93 4.76-7.74 7.98-9.2 2.43-1.13 4.5-6.34 10.04-6.34 4.42 0 4.71 4.58 6.74 4.76 5.27.45 8.23.65 8.23 4.6 0 2.9-3.61 10.8-10.97 10.8 0-1.46-.48-5.1-1.26-6.85-4.43.23-8.03 6.09-14.16 6.07-1.31-.03-3.66 3.28-3.66 3.28Z" />
	<path fill="#DE8E68" fill-rule="evenodd"
		d="M101.52 21.68c0 1.9-1.22 3.43-2.72 3.43-1.51 0-2.73-1.53-2.73-3.43 0-1.89 1.22-3.42 2.73-3.42 1.5 0 2.72 1.53 2.72 3.42Z" />
	<path stroke="#DFDFDF" stroke-linecap="round" stroke-linejoin="round" stroke-width="5"
		d="M294.84 204.79H168.11v-28.35c6.93-.64 105.46-10.23 105.46-10.23v-61.65l-119.78-6.98 14.32 78.86" />
	<path stroke="#DFDFDF" stroke-linejoin="round" stroke-width="5"
		d="M178.29 220.45c-3.24 0-5.88-2.71-5.88-6.06 0-3.35 2.64-6.06 5.88-6.06 3.25 0 5.88 2.71 5.88 6.06 0 3.35-2.63 6.06-5.88 6.06ZM293.15 220.45c-3.25 0-5.89-2.71-5.89-6.06 0-3.35 2.64-6.06 5.89-6.06 3.24 0 5.88 2.71 5.88 6.06 0 3.35-2.64 6.06-5.88 6.06Z" />
	<path stroke="#DFDFDF" stroke-linecap="round" stroke-linejoin="round" stroke-width="5"
		d="M158.47 123.35h115.1M161.65 140.87h111.92M133.28 93.58l9.74-4.09M171.39 140.87c-1.26-3.67-14.63-43.13-14.63-43.13" />
</svg>