<svg version="1.1" xmlns="http://www.w3.org/2000/svg" xmlns:xlink="http://www.w3.org/1999/xlink"
	x="0px" y="0px"
	viewBox="0 0 500 500"  width="300" height="300" style="enable-background:new 0 0 500 500;" xml:space="preserve">
<g id="BACKGROUND">
	<path style="fill:#C6EDF5;" d="M52.873,179.65C73.354,94.577,175.048,67.134,204.201,59.268
		c93.035-25.105,206.087,2.655,219.212,55.864c9.245,37.477-34.118,75.274-15.557,119.596c9.522,22.739,24.855,22.15,27.578,36.98
		c8.338,45.403-114.705,163.399-233.355,131.398C112.043,378.822,31.136,269.944,52.873,179.65z"/>
</g>
<g id="OBJECTS">
	<g>
		<path style="fill:#404FA8;" d="M56.917,442.466c-1.463-1.586-2.097-3.368-1.777-5.23c1.683-9.818,14.446-1.823,14.446-1.823
			s-2.244-3.647-0.982-8.384c1.262-4.738,9.256,0,9.256,0s-6.311-15.037,2.525-15.432c8.835-0.395,12.201,18.764,12.201,18.764
			s8.836-10.375,15.568-5.382c6.732,4.993,4.207,17.488,4.207,17.488H56.917z"/>
		<path style="fill:#404FA8;" d="M97.51,417.948c0,0,2.051-7.795-2.256-9.641c0,0-2.692,1.026-1.077,4.487
			C95.792,416.256,97.51,417.948,97.51,417.948z"/>
		<path style="fill:#404FA8;" d="M62.738,427.965c0,0-4.978-6.34-9.049-4.019c0,0-0.807,2.766,2.928,3.567
			C60.352,428.314,62.738,427.965,62.738,427.965z"/>
	</g>
	<g>
		<path style="fill:#404FA8;" d="M291.011,446.868c0,0-12.672-2.135-11.99-7.313c1.299-9.875,20.304-2.589,20.304-2.589
			s-1.026-4.858,1.635-6.95c5.723-4.497,10.994,1.414,10.994,1.414s-4.84-9.876,3.996-10.272c8.836-0.395,10.73,13.604,10.73,13.604
			s8.836-10.375,15.568-5.382c6.732,4.993,4.207,17.488,4.207,17.488H291.011z"/>
		<path style="fill:#404FA8;" d="M296.832,432.367c0,0-4.978-6.34-9.049-4.019c0,0-0.807,2.766,2.928,3.567
			C294.446,432.716,296.832,432.367,296.832,432.367z"/>
	</g>
	<g>
		<g>
			<g>
				<path style="fill:#FFC89E;" d="M334.418,242.378c-0.39-0.52-4.329-2.32-6.407-3.749c-2.078-1.428-2.999-4.226-2.999-4.226
					l1.772-8.997l10.787,4.049L334.418,242.378z"/>
				<path style="fill:#FFC89E;" d="M326.709,225.267c0,0,1.561-2.244,5.392-2.825c3.241-0.491,6.181-3.699,7.157-2.863
					c1.795,1.539-2.674,5.335-11.518,11.723L326.709,225.267z"/>
				<path style="fill:#F5B829;" d="M332.7,247.318l-0.795-0.116c-1.615-0.236-2.732-1.737-2.496-3.352l2.662-18.195
					c0.236-1.615,1.737-2.732,3.352-2.496l0.795,0.116c1.615,0.236,2.732,1.737,2.496,3.352l-2.662,18.195
					C335.815,246.437,334.314,247.555,332.7,247.318z"/>
				<g>
					<path style="fill:#FFC89E;" d="M338.436,239.589c0,0-3.952-1.954-6.601-0.318c-2.426,1.499,0.663,3.049,3.757,3.79
						c3.094,0.741,5.461,3.208,5.282-3.87c-0.24-9.483-1.826-11.841-1.826-11.841S335.648,229.049,338.436,239.589z"/>
					<path style="fill:#FFC89E;" d="M332.422,237.558c0.08,1.316,2.556,1.92,4.868,2.11c4.791,0.393,4.741-1.589,4.661-2.906
						c-0.08-1.316-3.165-1.984-5.481-1.843C334.154,235.061,332.342,236.242,332.422,237.558z"/>
					<path style="fill:#FFC89E;" d="M333.156,232.567c-0.147,1.58,1.669,2.674,3.916,3.251c3.584,0.92,4.782-0.848,4.929-2.428
						c0.147-1.58-2.224-2.151-4.534-2.366C335.156,230.809,333.303,230.987,333.156,232.567z"/>
					<path style="fill:#FFC89E;" d="M334.084,228.962c-0.12,1.29,1.298,2.326,3.124,2.647c3.426,0.601,4.238-0.22,4.358-1.51
						c0.12-1.29-2.078-2.989-3.923-3.161C335.797,226.767,334.204,227.673,334.084,228.962z"/>
				</g>
			</g>
			<g>
				<g>
					<path style="fill:#FFC89E;" d="M263.725,192.187l7.258,27.062c0.453,1.688,1.764,3.012,3.448,3.481l52.46,12.094l1.724-8.886
						l-39.533-19.746l-5.702-17.785"/>
					<path style="fill:#404FA8;" d="M283.379,188.407l-10.412-32.476c-1.818-5.67-8.476-8.128-13.542-5l0,0
						c-3.445,2.127-5.086,6.262-4.037,10.172l8.337,31.085"/>
					<g>
						<path style="fill:#DEA385;" d="M292.5,212.685c0.139-0.093-0.01-0.242-0.065-0.364c-0.082-0.127-0.165-0.254-0.258-0.378
							l-0.535-0.754c-0.36-0.502-0.686-1.025-1.011-1.551c-0.621-1.073-1.202-2.164-1.549-3.447c1.089,0.77,1.863,1.788,2.525,2.866
							c0.314,0.551,0.609,1.116,0.822,1.729c0.112,0.303,0.199,0.62,0.262,0.947c0.023,0.167,0.05,0.334,0.048,0.51
							c-0.003,0.089-0.007,0.178-0.033,0.272C292.693,212.601,292.59,212.729,292.5,212.685z"/>
					</g>
				</g>
			</g>
		</g>
		<path style="fill:#F73E60;" d="M231.439,233.541c-9.493,0.001-18.866-5.106-27.348-15.127l1.734-1.468
			c15.624,18.455,30.144,15.778,39.574,10.283c18.999-11.073,31.787-42.616,24.88-61.366c-3.288-8.926-8.211-14.533-14.632-16.666
			c-10.767-3.574-22.283,3.791-22.398,3.866l-1.238-1.905c0.508-0.33,12.562-8.033,24.352-4.117
			c7.109,2.361,12.509,8.43,16.048,18.037c7.228,19.619-6.07,52.575-25.868,64.115C241.554,232.102,236.479,233.541,231.439,233.541
			z"/>
		<path style="fill:#CF3162;" d="M211.781,218.746l-54.666-24.81c-2.712-1.231-3.913-4.427-2.682-7.14l18.107-65.81
			c1.231-2.712,10.962-0.941,13.674,0.29l54.666,24.81c2.712,1.231,3.913,4.427,2.682,7.14l-24.641,62.838
			C217.689,218.776,214.493,219.977,211.781,218.746z"/>
		<g>
			<path style="fill:#C2BEC1;" d="M280.71,394.493c0.582-0.159,1.09-0.566,1.359-1.157c0.479-1.055,0.012-2.299-1.044-2.778
				l-40.219-18.043c-1.055-0.479-2.298-0.011-2.778,1.044c-0.478,1.055-0.012,2.299,1.044,2.778l40.219,18.043
				C279.755,394.59,280.255,394.618,280.71,394.493z"/>
			<g>
				<path style="fill:#FFE32B;" d="M317.363,401.671l-38.965-3.651c-2.85-0.267-4.944-2.794-4.677-5.644l0.132-1.404
					c0.267-2.85,2.794-4.944,5.644-4.677l38.965,3.651c2.85,0.267,4.944,2.794,4.677,5.644l-0.132,1.404
					C322.74,399.844,320.213,401.938,317.363,401.671z"/>
				<g>
					<path style="fill:#F5B829;" d="M321.863,399.329c-0.343-2.672-2.488-4.849-5.282-5.111l-37.562-3.52
						c-2.086-0.195-4.009,0.732-5.202,2.276c0.343,2.672,2.487,4.849,5.282,5.111l37.562,3.52
						C318.747,401.801,320.67,400.874,321.863,399.329z"/>
				</g>
			</g>
		</g>
		<g>
			<path style="fill:#F73E60;" d="M292.689,364.013c0,0,0.032,6.529,10.629,10.4c10.597,3.87,25,4.735,27.949,7.469
				c2.95,2.733,0.008,8.121-2.465,8.719c-2.583,0.624-18.911,0.508-26.735-1.572c-7.823-2.08-11.366-3.215-14.556-2.465
				c-3.19,0.75-6.364,1.268-10.212,1.047c-3.848-0.22-5.115-16.845-0.594-22.88C281.227,358.694,292.689,364.013,292.689,364.013z"
				/>
			<path d="M287.512,386.563c-3.19,0.75-6.364,1.268-10.212,1.047c-1.385-0.079-2.433-2.29-3-5.362
				c2.659,0.73,5.946,2.801,10.303,1.825c3.096-0.694,2.795-2.048,5.671-2.986c6.517-2.125,10.42,4.057,21.89,6.246
				c4.43,0.845,9.718,1.855,14.728-0.677c2.433-1.229,3.821-2.798,4.939-4.103c1.929,2.859-0.745,7.495-3.029,8.047
				c-2.583,0.624-18.911,0.508-26.735-1.572C294.245,386.948,290.702,385.813,287.512,386.563z"/>
		</g>
		<path style="fill:#333333;" d="M296.044,369.365c-3.618-23.434,3.281-82.08,3.281-82.08c-0.025-1.304-0.222-2.598-0.589-3.851
			l-49.85-62.327l-40.744,8.927l60.012,61.527l4.859,80.828l10.441,0.484C287.926,373.082,292.356,371.847,296.044,369.365
			L296.044,369.365z"/>
		<path d="M242.449,236.067c0,0,6.475,22.83,21.707,51.437l-35.694-35.468C233.9,242.342,242.449,236.067,242.449,236.067z"/>
		<g>
			<path style="fill:#C2BEC1;" d="M169.934,324.06c32.225,0,58.441,26.217,58.441,58.442c0,32.225-26.217,58.442-58.441,58.442
				c-32.225,0-58.442-26.217-58.442-58.442C111.493,350.277,137.71,324.06,169.934,324.06 M169.934,319.302
				c-34.848,0-63.199,28.351-63.199,63.199s28.351,63.199,63.199,63.199c34.848,0,63.199-28.351,63.199-63.199
				S204.783,319.302,169.934,319.302L169.934,319.302z"/>
			<path style="fill:#C2BEC1;" d="M373.867,324.06c32.225,0,58.442,26.217,58.442,58.442c0,32.225-26.217,58.442-58.442,58.442
				c-32.225,0-58.441-26.217-58.441-58.442C315.426,350.277,341.643,324.06,373.867,324.06 M373.867,319.302
				c-34.848,0-63.199,28.351-63.199,63.199s28.351,63.199,63.199,63.199c34.848,0,63.199-28.351,63.199-63.199
				S408.716,319.302,373.867,319.302L373.867,319.302z"/>
			<path style="fill:#FFE32B;" d="M169.934,449.897c-37.162,0-67.395-30.233-67.395-67.396c0-37.163,30.234-67.396,67.395-67.396
				c37.161,0,67.395,30.233,67.395,67.396C237.33,419.664,207.096,449.897,169.934,449.897z M169.934,319.302
				c-34.848,0-63.199,28.351-63.199,63.199s28.351,63.199,63.199,63.199c34.848,0,63.199-28.351,63.199-63.199
				S204.783,319.302,169.934,319.302z"/>
			<path style="fill:#FFE32B;" d="M373.692,449.897c-37.161,0-67.395-30.233-67.395-67.396c0-37.163,30.233-67.396,67.395-67.396
				c37.163,0,67.396,30.233,67.396,67.396C441.088,419.664,410.855,449.897,373.692,449.897z M373.692,319.302
				c-34.848,0-63.198,28.351-63.198,63.199s28.35,63.199,63.198,63.199c34.849,0,63.199-28.351,63.199-63.199
				S408.541,319.302,373.692,319.302z"/>
			<path style="fill:#C2BEC1;" d="M256.887,385.471h-86.952c-0.712,0-1.376-0.362-1.763-0.96c-0.387-0.6-0.442-1.352-0.149-2.002
				l49.092-108.566c0.342-0.758,1.053-1.285,1.933-1.233c0.833,0.009,1.581,0.508,1.908,1.273l36.196,105.726l78.409-102.802
				l-97.288,0.045h-0.001c-1.158,0-2.098-0.939-2.098-2.098c-0.001-1.158,0.938-2.098,2.098-2.099l101.683-0.047
				c0.001,0,0.001,0,0.001,0c0.809,0,1.545,0.464,1.893,1.193c0.348,0.73,0.247,1.595-0.261,2.224l-83.069,108.567
				C258.12,385.185,257.52,385.471,256.887,385.471z M173.186,381.275h80.071l-34.284-101.257L173.186,381.275z"/>
			<path style="fill:#C2BEC1;" d="M376.688,383.953c-0.994,0.166-1.993-0.407-2.329-1.392l-46.011-134.919
				c-0.373-1.097,0.212-2.289,1.309-2.663c1.101-0.376,2.29,0.212,2.664,1.309l46.011,134.917c0.373,1.097-0.212,2.29-1.309,2.664
				C376.912,383.906,376.8,383.934,376.688,383.953z"/>
			<path style="fill:#FFE32B;" d="M224.302,274.008h-24.427c-3.033,0-5.492-2.459-5.492-5.492v-8.445
				c0-3.033,2.459-5.492,5.492-5.492h24.427c3.033,0,5.492,2.459,5.492,5.492v8.445
				C229.794,271.549,227.335,274.008,224.302,274.008z"/>
			<path style="fill:#F5B829;" d="M224.302,274.073h-24.427c-3.033,0-5.492-2.459-5.492-5.492v-7.595h35.411v7.595
				C229.794,271.614,227.335,274.073,224.302,274.073z"/>
			
				<ellipse transform="matrix(0.2315 -0.9728 0.9728 0.2315 -179.9993 535.9003)" style="fill:#706E6F;" cx="249.193" cy="381.879" rx="17.575" ry="17.575"/>
			<path style="fill:#C2BEC1;" d="M143.878,397.99c-0.518-0.309-0.899-0.836-1-1.478c-0.179-1.145,0.603-2.218,1.748-2.398
				L248.298,379.3c1.145-0.18,2.217,0.604,2.398,1.748c0.179,1.145-0.603,2.219-1.748,2.398l-103.672,14.813
				C144.773,398.338,144.284,398.231,143.878,397.99z"/>
			<path style="fill:#706E6F;" d="M175.257,381.657c0,2.436-1.974,4.41-4.41,4.41c-2.436,0-4.41-1.974-4.41-4.41
				c0-2.436,1.975-4.41,4.41-4.41C173.283,377.247,175.257,379.221,175.257,381.657z"/>
			<path style="fill:#706E6F;" d="M170.847,394.663c-7.172,0-13.007-5.835-13.007-13.006c0-7.172,5.835-13.007,13.007-13.007
				c7.172,0,13.007,5.835,13.007,13.007C183.854,388.829,178.019,394.663,170.847,394.663z M170.847,369.558
				c-6.671,0-12.099,5.428-12.099,12.099c0,6.671,5.428,12.098,12.099,12.098c6.672,0,12.099-5.428,12.099-12.098
				C182.946,374.986,177.519,369.558,170.847,369.558z"/>
			<path style="fill:#706E6F;" d="M250.167,403.653c-0.492,0-0.985-0.017-1.482-0.05l-79.011-5.304
				c-8.419-0.566-15.015-7.619-15.015-16.058c0-8.439,6.596-15.492,15.015-16.057l79.011-5.305
				c5.977-0.401,11.682,1.632,16.058,5.724c4.376,4.092,6.786,9.646,6.786,15.638s-2.411,11.545-6.786,15.638
				C260.73,401.632,255.601,403.653,250.167,403.653z M169.751,397.166l79.011,5.304c5.657,0.385,11.061-1.544,15.206-5.42
				c4.145-3.875,6.427-9.135,6.427-14.808c0-5.673-2.282-10.933-6.427-14.808c-4.144-3.875-9.547-5.81-15.206-5.42l-79.011,5.305
				c-7.826,0.525-13.956,7.08-13.956,14.923C155.795,390.085,161.925,396.64,169.751,397.166L169.751,397.166z"/>
			<path style="fill:#FFE32B;" d="M147.247,408.832l-23.559-31.251c-1.723-2.286-1.267-5.536,1.019-7.259l1.126-0.849
				c2.286-1.723,5.536-1.267,7.259,1.019l23.559,31.25c1.723,2.286,1.267,5.536-1.019,7.259l-1.126,0.849
				C152.22,411.574,148.97,411.118,147.247,408.832z"/>
			<path style="fill:#F5B829;" d="M129.681,373.66c-1.399-1.855-3.681-2.627-5.818-2.215c-1.281,2.013-1.272,4.682,0.249,6.699
				l22.711,30.125c1.399,1.855,3.68,2.627,5.818,2.215c1.281-2.013,1.272-4.682-0.249-6.699L129.681,373.66z"/>
			<circle style="fill:#706E6F;" cx="376.552" cy="381.657" r="4.41"/>
		</g>
		<g>
			<path style="fill:#F73E60;" d="M157.26,364.191c0,0-4.785,4.602-0.23,14.655c4.555,10.053,13.982,20.633,14.031,24.593
				c0.049,3.96-5.974,5.703-8.142,4.409c-2.265-1.351-13.588-12.74-17.523-19.616c-3.935-6.876-5.575-10.126-8.356-11.809
				c-2.781-1.683-5.38-3.518-7.907-6.337c-2.526-2.819,8.829-15.357,16.432-16.461C153.167,352.523,157.26,364.191,157.26,364.191z"
				/>
			<path d="M137.039,376.423c-2.781-1.683-5.38-3.518-7.907-6.337c-0.91-1.015-0.014-3.291,1.852-5.839
				c1.321,2.354,2.092,6.082,5.856,8.415c2.675,1.657,3.461,0.499,6.161,1.833c6.119,3.022,4.293,10.061,10.696,19.539
				c2.473,3.661,5.425,8.031,10.789,9.724c2.605,0.822,4.73,0.684,6.472,0.542c-0.757,3.341-6.039,4.741-8.041,3.547
				c-2.265-1.351-13.588-12.74-17.523-19.616C141.46,381.356,139.82,378.106,137.039,376.423z"/>
		</g>
		<path style="fill:#FFFFFF;" d="M278.394,436.99"/>
		<path style="fill:#333333;" d="M156.562,365.87c18.937-25.462,68.059-36.732,81.061-43.514c3.063-1.598,5.649-3.921,7.535-6.744
			l8.19-85.916l-40.125-6.366c0,0-8.528,12.844-9.69,29.93c-0.508,7.48,10.452,45.369,10.452,45.369
			c-19.089,11.341-24.605,1.176-43.168,28.249l-26.022,22.629l0.021,4.724c0.028,6.242,5.141,11.537,11.612,11.64
			C156.473,365.869,156.517,365.87,156.562,365.87L156.562,365.87z"/>
		<path style="fill:#404FA8;" d="M195.819,246.087c0,0,40.106,11.452,70.826-3.99c0,0,1.297-33.82,2.729-36.51
			c1.432-2.691,6.25-43.822,3.127-50.314c-4.095-8.512-17.286-23.658-36.439-4.48C207.052,179.839,195.819,246.087,195.819,246.087z
			"/>
		<path style="opacity:0.4;fill:#C2B3A1;" d="M199.809,227.824c3.975-4.721,23.428-46.536,25.431-50.284
			c1.705-3.19,12.24-27.18,19.584-33.498c-2.759,1.479-5.683,3.666-8.763,6.75C216.723,170.155,205.287,206.043,199.809,227.824z"/>
		<g>
			<path style="fill:#FFC89E;" d="M276.785,113.929l-20.632,7.924l-2.436,11.47c-0.282,1.095-1.908,10.906-1.908,10.906
				c5.504,7.418,11.894,12.013,11.894,12.013s1.756-5.726,3.671-13.202L276.785,113.929z"/>
			<path style="fill:#DEA385;" d="M266.76,110.65l10.026,3.279l-9.411,29.111c-0.285,1.549-1.32,4.92-1.32,4.92
				c-3.047-1.51-8.572-7.039-10.351-12.376c-0.878-2.632-0.196-5.416,0.576-9.787C257.853,116.894,262.202,112.499,266.76,110.65z"
				/>
			<path style="fill:#FFC89E;" d="M281.86,111.274c1.255,4.262-0.297,8.373-0.309,14.852c-0.009,4.504-2.483,8.602-3.937,11.732
				c-5.325,11.462-11.173,8.019-21.183-2.48c-1.865-1.957-1.015-8.858,0.027-13.055C261.411,102.374,280.829,107.772,281.86,111.274
				z"/>
			<path style="fill:#333333;" d="M251.201,108.554c4.788-16.553,28.871-7.379,31.438-3.602c4.965,7.306-0.417,11.367-1.82,10.909
				c-4.391-0.725-19.541-4.484-18.759,8.502c0.198,3.274-3.307,1.545-6.341,0.741c-1.395,3.43-1.558,9.083-1.886,8.611
				C253.055,132.598,244.863,130.466,251.201,108.554z"/>
			<path style="fill:#FFC89E;" d="M259.212,130.102c-1.743,0.759-4.042-0.655-5.133-3.16c-1.092-2.506-0.564-5.152,1.179-5.913
				c1.744-0.76,4.042,0.656,5.134,3.161C261.484,126.695,260.955,129.342,259.212,130.102z"/>
			<path style="fill:none;stroke:#FFFFFF;stroke-width:2;stroke-miterlimit:10;" d="M255.708,139.73"/>
			<path style="fill:#FFFFFF;" d="M281.369,128.729c0,0,2.954-5.411-13.681-0.076c0,0-2.868,11.505,6.245,12.686
				C280.786,142.226,280.704,134.167,281.369,128.729z"/>
			<path style="fill:#FFFFFF;" d="M267.843,129.886c-4.94-1.52-8.217-6.032-8.354-6.224l0.923-0.662
				c0.032,0.044,3.198,4.394,7.766,5.799L267.843,129.886z"/>
			<path style="fill:#F73E60;" d="M247.109,115.643c0,0,0.024-18.522,18.215-18.747c18.448-0.229,21.064,8.446,19.423,15.13
				c-1.232,5.015-14.268-1.673-17.781,1.36c-3.513,3.033-0.791,10.53-6.286,9.143c-4.817-1.216-6.201-0.217-6.601,4.412
				C254.079,126.941,246.29,128.729,247.109,115.643z"/>
			<path style="fill:#F73E60;" d="M261.923,117.931c-0.57,1.923-1.022,3.968-1.365,5.99c-0.344,2.031-0.564,4.084-0.62,6.137
				c-0.046,2.051,0.079,4.112,0.543,6.098c0.46,1.977,1.309,3.89,2.723,5.36l-0.382,0.402c-1.614-1.458-2.664-3.451-3.29-5.502
				c-0.633-2.063-0.908-4.208-1.007-6.342c-0.089-2.137-0.006-4.274,0.206-6.395c0.216-2.13,0.524-4.212,1-6.348L261.923,117.931z"
				/>
			<path style="fill:#FFFFFF;" d="M282.806,111.162c-0.043,0-0.089-0.005-0.133-0.016c-0.305-0.073-0.493-0.381-0.419-0.685
				c0.781-3.233-1.134-5.339-1.153-5.36c-0.214-0.23-0.201-0.589,0.029-0.803c0.23-0.213,0.589-0.2,0.803,0.029
				c0.096,0.104,2.348,2.58,1.426,6.399C283.295,110.988,283.062,111.162,282.806,111.162z"/>
			<path style="fill:#FFFFFF;" d="M279.117,111.265c-0.04,0-0.08-0.004-0.121-0.013c-0.306-0.066-0.501-0.368-0.436-0.674
				c0.559-2.598-0.81-4.279-0.869-4.349c-0.2-0.24-0.169-0.598,0.07-0.799c0.241-0.203,0.596-0.173,0.798,0.067
				c0.074,0.087,1.793,2.158,1.113,5.321C279.614,111.083,279.379,111.265,279.117,111.265z"/>
			<path style="fill:#FFFFFF;" d="M261.691,117.866c0.051,0.897-0.635,1.666-1.533,1.717c-0.897,0.051-1.666-0.635-1.717-1.533
				c-0.051-0.897,0.635-1.666,1.533-1.717C260.872,116.282,261.641,116.968,261.691,117.866z"/>
		</g>
		<path style="fill:#F73E60;" d="M198.737,219.558l-55.842-25.343c-2.387-1.084-3.445-3.897-2.361-6.285l29.643-65.316
			c1.084-2.387,3.897-3.445,6.285-2.361l55.841,25.343c2.387,1.084,3.445,3.897,2.361,6.285l-29.643,65.316
			C203.938,219.585,201.124,220.642,198.737,219.558z"/>
		<path style="fill:#F73E60;" d="M224.24,231.861c-9.493,0.001-18.866-5.106-27.348-15.127l1.734-1.468
			c15.624,18.455,30.144,15.779,39.574,10.283c18.998-11.073,31.787-42.616,24.88-61.366c-3.288-8.926-8.211-14.533-14.631-16.666
			c-10.767-3.574-22.283,3.791-22.398,3.866l-1.238-1.905c0.508-0.33,12.562-8.034,24.352-4.118
			c7.109,2.361,12.509,8.43,16.048,18.037c7.228,19.619-6.07,52.575-25.868,64.115C234.354,230.421,229.279,231.861,224.24,231.861z
			"/>
		<path style="opacity:0.4;fill:#C2B3A1;" d="M244.68,179.16l14.22,46.62C258.9,225.78,243.6,212.64,244.68,179.16z"/>
		<path style="fill:#FFFFFF;" d="M198.838,170.901c2.022-5.871-0.792-12.497-6.419-15.123c-0.182-0.085-0.911-0.384-1.1-0.451
			c-5.849-2.085-12.507,0.653-15.193,6.251c-1.731,3.608-0.916,6.717,0.099,10.847c0.438,1.781,2.677,8.04,3.24,9.387
			c0.234,0.558,0.645,0.986,1.128,1.21c0.502,0.18,1.095,0.165,1.653-0.069c1.347-0.563,7.338-3.444,8.901-4.404
			C194.771,176.326,197.535,174.686,198.838,170.901z M185.272,171.623c-2.6-1.067-3.842-4.04-2.775-6.64
			c1.067-2.6,4.04-3.842,6.639-2.775c2.6,1.067,3.842,4.04,2.775,6.64C190.845,171.448,187.872,172.69,185.272,171.623z"/>
		<path style="opacity:0.29;fill:#C2B3A1;" d="M274.733,193.274l-10.996-25.82c-1.01-2.863-6.448-6.109-9.018-6.931
			c-0.728,1.842,0.073,0.01,0.636,2.025l8.654,30.979l7.534,26.969c0.47,1.683,1.774,2.991,3.429,3.44l51.528,11.482l-1.225-3.404
			l-44.333-21.147L274.733,193.274z"/>
		<g>
			<g>
				<g>
					<path style="fill:#FFC89E;" d="M249.581,196.647l8.472,29.243c0.529,1.824,1.982,3.234,3.821,3.707l57.124,12.745l1.811-10.436
						l-43.377-20.595l-6.581-19.199"/>
					<path style="fill:#404FA8;" d="M270.851,192.113l-12.364-32.982c-2.098-6.121-9.037-10.722-14.473-7.213l0,0
						c-3.696,2.385-5.389,6.913-4.165,11.139l9.732,33.59"/>
					<g>
						<path style="fill:#DEA385;" d="M268.259,209.557c0.739-0.364,1.524-0.672,2.363-0.79c0.834-0.139,1.697-0.107,2.535,0.043
							c1.675,0.316,3.226,1.207,4.275,2.501c-0.803-0.26-1.523-0.575-2.269-0.805c-0.737-0.244-1.47-0.452-2.218-0.581
							c-0.743-0.154-1.499-0.23-2.272-0.277C269.898,209.596,269.106,209.651,268.259,209.557z"/>
					</g>
				</g>
			</g>
			<g>
				<path style="fill:#FFE32B;" d="M330.124,252.011l-3.039-0.445c-1.615-0.236-2.732-1.737-2.496-3.352l3.85-26.317
					c0.236-1.615,1.737-2.732,3.352-2.496l3.039,0.445c1.615,0.236,2.732,1.737,2.496,3.352l-3.85,26.318
					C333.24,251.129,331.739,252.247,330.124,252.011z"/>
				<path style="fill:#FFC89E;" d="M337.25,223.714c-1.305-1.119-5.286,2.536-9.621,3.192c-5.126,0.777-7.572,4.81-7.572,4.81l0,0
					l-2.065,10.256c0,0,4.342,4.025,6.725,4.925c3.156,1.192,6.363,0.205,6.884,0.9l3.368-12.124l-7.107-2.131
					C335.238,230.057,339.198,225.384,337.25,223.714z"/>
				<path style="fill:#FFC89E;" d="M338.568,241.73c-0.068-0.598-0.7-1.062-1.626-1.394c1.027-0.673,1.447-1.716,1.501-2.691
					c0.057-1.034-0.859-1.667-2.187-2.062c1.021-0.369,1.372-1.05,1.419-1.898c0.087-1.567-2.947-3.51-5.423-3.623
					c-2.477-0.113-4.555,1.065-4.642,2.632c-0.055,0.987,0.702,1.82,1.883,2.376c-1.689,0.186-2.847,0.74-2.919,2.034
					c-0.074,1.327,1.106,2.316,2.835,2.998c-2.028,0.546-3.435,1.637-3.511,2.811c-0.736,0.138-1.452,0.385-2.099,0.782
					c-3.157,1.939,1.06,3.656,5.238,4.394c3.471,0.613,8.796-0.309,6.22-2.705C338.856,244.91,338.719,243.045,338.568,241.73z"/>
			</g>
		</g>
	</g>
</g>
</svg>